<?xml version="1.0" standalone="no"?>
<!DOCTYPE svg PUBLIC "-//W3C//DTD SVG 20010904//EN"
 "http://www.w3.org/TR/2001/REC-SVG-20010904/DTD/svg10.dtd">
<svg version="1.0" xmlns="http://www.w3.org/2000/svg"
 width="512.000000pt" height="512.000000pt" viewBox="0 0 512.000000 512.000000"
 preserveAspectRatio="xMidYMid meet">

<g transform="translate(0.000000,512.000000) scale(0.100000,-0.100000)"
fill="#000000" stroke="none">
<path fill="#FF0000" d="M2325 4639 c-685 -74 -1289 -454 -1660 -1044 -159 -253 -272 -575
-316 -905 -17 -127 -14 -414 5 -555 90 -651 446 -1211 1001 -1575 121 -79 358
-192 496 -238 258 -84 501 -118 778 -109 468 15 883 160 1261 440 128 96 349
318 448 451 401 542 535 1235 367 1892 -104 406 -314 756 -636 1060 -311 295
-742 503 -1179 569 -128 20 -442 27 -565 14z m887 -1054 c41 -8 114 -35 166
-61 167 -82 279 -219 334 -409 23 -80 23 -82 23 -700 0 -565 -2 -627 -18 -698
-52 -219 -203 -393 -406 -467 -133 -49 -186 -52 -821 -48 -574 4 -586 4 -660
27 -186 56 -334 176 -408 332 -72 150 -72 152 -72 842 0 581 1 618 20 693 64
254 250 434 505 489 94 21 1237 21 1337 0z"/>
<path fill="#FF0000" d="M1960 3381 c-222 -30 -358 -164 -390 -384 -8 -58 -11 -243 -8 -637 3
-533 4 -557 25 -617 54 -160 157 -256 320 -298 85 -22 1191 -22 1276 0 173 45
294 173 327 344 14 76 13 1163 -1 1233 -35 166 -142 287 -302 341 -60 20 -82
21 -627 23 -311 1 -590 -1 -620 -5z m1302 -213 c112 -80 52 -258 -87 -258
-119 0 -183 145 -104 235 51 57 130 67 191 23z m-576 -162 c211 -56 375 -209
446 -415 31 -88 33 -267 4 -351 -45 -132 -111 -230 -206 -304 -114 -90 -247
-136 -390 -136 -162 0 -300 54 -417 163 -81 76 -130 152 -166 257 -25 70 -30
102 -30 180 -1 113 13 180 59 275 75 159 224 283 395 329 69 19 239 20 305 2z"/>
<path fill="#FF0000" d="M2445 2797 c-121 -31 -213 -109 -268 -225 -29 -61 -32 -76 -32 -162
0 -86 3 -101 32 -162 58 -122 169 -207 298 -228 170 -28 349 69 423 228 24 50
27 69 27 162 0 95 -3 111 -29 168 -38 83 -132 171 -213 202 -71 27 -172 34
-238 17z"/>
</g>
</svg>
