<?xml version="1.0" standalone="no"?>
<!DOCTYPE svg PUBLIC "-//W3C//DTD SVG 20010904//EN"
 "http://www.w3.org/TR/2001/REC-SVG-20010904/DTD/svg10.dtd">
<svg version="1.0" xmlns="http://www.w3.org/2000/svg"
 width="512.000000pt" height="512.000000pt" viewBox="0 0 512.000000 512.000000"
 preserveAspectRatio="xMidYMid meet">

<g transform="translate(0.000000,512.000000) scale(0.100000,-0.100000)"
fill="#000000" stroke="none">
<path fill="#FFAA00" d="M2255 4633 c-483 -65 -967 -312 -1304 -669 -310 -328 -505 -719 -588
-1179 -25 -144 -25 -567 1 -710 89 -487 291 -880 626 -1215 337 -337 736 -541
1225 -627 77 -13 157 -17 345 -18 270 0 391 15 605 75 787 222 1402 879 1570
1680 45 214 58 513 31 730 -93 741 -538 1376 -1201 1712 -231 117 -466 190
-713 222 -154 20 -445 19 -597 -1z m1461 -995 c22 -15 48 -42 59 -60 20 -32
20 -55 20 -1158 0 -1103 0 -1126 -20 -1158 -11 -18 -37 -45 -59 -60 l-39 -27
-1104 -3 c-1066 -2 -1106 -2 -1147 17 -24 10 -56 36 -72 57 l-29 37 0 1137 0
1137 29 37 c16 21 47 47 70 57 39 18 83 19 1147 16 l1106 -2 39 -27z"/>
<path fill="#FFAA00" d="M1820 3241 c-53 -17 -91 -43 -118 -83 -35 -54 -38 -144 -6 -198 63
-109 233 -133 331 -47 44 39 63 82 63 142 0 60 -19 103 -63 142 -54 47 -138
65 -207 44z"/>
<path fill="#FFAA00" d="M2867 2716 c-61 -17 -143 -73 -184 -127 l-33 -43 0 82 0 82 -185 0
-185 0 0 -565 0 -565 185 0 184 0 3 353 3 354 30 49 c41 66 100 99 176 98 78
-1 120 -29 156 -102 l28 -57 3 -347 4 -348 184 0 184 0 0 359 c0 394 -7 463
-56 568 -50 104 -152 186 -266 213 -59 13 -173 11 -231 -4z"/>
<path fill="#D58E00" d="M1697 2703 c-4 -3 -7 -258 -7 -565 l0 -558 190 0 190 0 0 565 0 565
-183 0 c-101 0 -187 -3 -190 -7z"/>
</g>
</svg>
